HIERARCHY
ROOT hips
{
  OFFSET 0 11.86390953 0.3628582958
  CHANNELS 6 Xposition Yposition Zposition Yrotation Xrotation Zrotation
  JOINT spine
  {
    OFFSET 0 0.05383551117999996 0
    CHANNELS 3 Yrotation Xrotation Zrotation
    JOINT chest
    {
      OFFSET 0 0.6394558760401424 0
      CHANNELS 3 Yrotation Xrotation Zrotation
      JOINT neck
      {
        OFFSET 0 2.720089088562982 0
        CHANNELS 3 Yrotation Xrotation Zrotation
        JOINT head
        {
          OFFSET 0 0.37880844870545777 0
          CHANNELS 3 Yrotation Xrotation Zrotation
          JOINT rightEye
          {
            OFFSET -0.42867780714 0.7547055649100001 0.7381831347
            CHANNELS 3 Yrotation Xrotation Zrotation
            End Site
            {
              OFFSET -0.42867780714 0.7547055649100001 0.7381831347
            }
          }
          JOINT leftEye
          {
            OFFSET 0.428676479 0.7547055559999993 0.7381844503
            CHANNELS 3 Yrotation Xrotation Zrotation
            End Site
            {
              OFFSET 0.428676479 0.7547055559999993 0.7381844503
            }
          }
          JOINT jaw
          {
            OFFSET -0.18933892286100001 1.5626303011000007 1.137441874206
            CHANNELS 3 Yrotation Xrotation Zrotation
            End Site
            {
              OFFSET -0.18933892286100001 1.5626303011000007 1.137441874206
            }
          }
        }
      }
      JOINT rightShoulder
      {
        OFFSET -0.6795351508 2.0665205 0
        CHANNELS 3 Yrotation Xrotation Zrotation
        JOINT rightUpperArm
        {
          OFFSET -0.7287400483531672 0 0
          CHANNELS 3 Yrotation Xrotation Zrotation
          JOINT rightLowerArm
          {
            OFFSET -1.9872982039174532 0 0
            CHANNELS 3 Yrotation Xrotation Zrotation
            JOINT rightHand
            {
              OFFSET -2.6451847532219275 0 0
              CHANNELS 3 Yrotation Xrotation Zrotation
              JOINT rightLittleProximal
              {
                OFFSET -0.8008804099999995 -0.09592044000000044 -0.26183688629999996
                CHANNELS 3 Yrotation Xrotation Zrotation
                JOINT rightLittleIntermediate
                {
                  OFFSET -0.2473955153999997 -0.02541697026000067 0.002370178700999967
                  CHANNELS 3 Yrotation Xrotation Zrotation
                  JOINT rightLittleDistal
                  {
                    OFFSET -0.163687229200001 -0.015790700860001117 -0.0004274845300000635
                    CHANNELS 3 Yrotation Xrotation Zrotation
                    End Site
                    {
                      OFFSET -0.163687229200001 -0.015790700860001117 -0.0004274845300000635
                    }
                  }
                }
              }
              JOINT rightRingProximal
              {
                OFFSET -0.8393382799999985 -0.06223833561000025 -0.09213143500000005
                CHANNELS 3 Yrotation Xrotation Zrotation
                JOINT rightRingIntermediate
                {
                  OFFSET -0.3284497260000011 -0.03264224524000103 0.009408593183000052
                  CHANNELS 3 Yrotation Xrotation Zrotation
                  JOINT rightRingDistal
                  {
                    OFFSET -0.19447660429999902 -0.021730899850000318 0.003074347969000052
                    CHANNELS 3 Yrotation Xrotation Zrotation
                    End Site
                    {
                      OFFSET -0.19447660429999902 -0.021730899850000318 0.003074347969000052
                    }
                  }
                }
              }
              JOINT rightMiddleProximal
              {
                OFFSET -0.8473005199999989 -0.06735503500000095 0.10541820299999995
                CHANNELS 3 Yrotation Xrotation Zrotation
                JOINT rightMiddleIntermediate
                {
                  OFFSET -0.3450455799999995 -0.02481901642000084 0.019012570390000032
                  CHANNELS 3 Yrotation Xrotation Zrotation
                  JOINT rightMiddleDistal
                  {
                    OFFSET -0.23542332000000088 -0.025003910029999243 0.0075583457949999905
                    CHANNELS 3 Yrotation Xrotation Zrotation
                    End Site
                    {
                      OFFSET -0.23542332000000088 -0.025003910029999243 0.0075583457949999905
                    }
                  }
                }
              }
              JOINT rightIndexProximal
              {
                OFFSET -0.8008568281999987 -0.09897839600000169 0.29462796
                CHANNELS 3 Yrotation Xrotation Zrotation
                JOINT rightIndexIntermediate
                {
                  OFFSET -0.30524754480000016 -0.024634122809999992 0.02743375304999998
                  CHANNELS 3 Yrotation Xrotation Zrotation
                  JOINT rightIndexDistal
                  {
                    OFFSET -0.23067378950000017 -0.016876459159999913 0.008484125099999983
                    CHANNELS 3 Yrotation Xrotation Zrotation
                    End Site
                    {
                      OFFSET -0.23067378950000017 -0.016876459159999913 0.008484125099999983
                    }
                  }
                }
              }
              JOINT rightThumbProximal
              {
                OFFSET -0.25574064999999935 -0.12833189930000155 0.22385698609999993
                CHANNELS 3 Yrotation Xrotation Zrotation
                JOINT rightThumbIntermediate
                {
                  OFFSET -0.22791743260000086 -0.07103586192999978 0.27385039
                  CHANNELS 3 Yrotation Xrotation Zrotation
                  JOINT rightThumbDistal
                  {
                    OFFSET -0.13610267659999975 -0.03369390969999997 0.14246511509999996
                    CHANNELS 3 Yrotation Xrotation Zrotation
                    End Site
                    {
                      OFFSET -0.13610267659999975 -0.03369390969999997 0.14246511509999996
                    }
                  }
                }
              }
            }
          }
        }
      }
      JOINT leftShoulder
      {
        OFFSET 0.6795338396 2.0665205 0
        CHANNELS 3 Yrotation Xrotation Zrotation
        JOINT leftUpperArm
        {
          OFFSET 0.7287383950230443 0 0
          CHANNELS 3 Yrotation Xrotation Zrotation
          JOINT leftLowerArm
          {
            OFFSET 1.9872997282019604 0 0
            CHANNELS 3 Yrotation Xrotation Zrotation
            JOINT leftHand
            {
              OFFSET 2.6451820781302327 0 0
              CHANNELS 3 Yrotation Xrotation Zrotation
              JOINT leftLittleProximal
              {
                OFFSET 0.8008804099999995 -0.09592306899999814 -0.2618342639000001
                CHANNELS 3 Yrotation Xrotation Zrotation
                JOINT leftLittleIntermediate
                {
                  OFFSET 0.2473981400000007 -0.02542352681000093 0.0023609995859999455
                  CHANNELS 3 Yrotation Xrotation Zrotation
                  JOINT leftLittleDistal
                  {
                    OFFSET 0.1636846068000002 -0.015794634789999318 -0.00043272972159996703
                    CHANNELS 3 Yrotation Xrotation Zrotation
                    End Site
                    {
                      OFFSET 0.1636846068000002 -0.015794634789999318 -0.00043272972159996703
                    }
                  }
                }
              }
              JOINT leftRingProximal
              {
                OFFSET 0.8393409199999996 -0.062242267999998324 -0.0921281570000001
                CHANNELS 3 Yrotation Xrotation Zrotation
                JOINT leftRingIntermediate
                {
                  OFFSET 0.3284471036000003 -0.03264224524000103 0.009405970574000042
                  CHANNELS 3 Yrotation Xrotation Zrotation
                  JOINT leftRingDistal
                  {
                    OFFSET 0.1944779099999996 -0.021732211159998904 0.003073036670000001
                    CHANNELS 3 Yrotation Xrotation Zrotation
                    End Site
                    {
                      OFFSET 0.1944779099999996 -0.021732211159998904 0.003073036670000001
                    }
                  }
                }
              }
              JOINT leftMiddleProximal
              {
                OFFSET 0.8473005200000001 -0.06736028199999788 0.1054214809999999
                CHANNELS 3 Yrotation Xrotation Zrotation
                JOINT leftMiddleIntermediate
                {
                  OFFSET 0.3450455799999995 -0.024824261000000014 0.019013225990000007
                  CHANNELS 3 Yrotation Xrotation Zrotation
                  JOINT leftMiddleDistal
                  {
                    OFFSET 0.2354259489999998 -0.025005222000000327 0.0075590014499999705
                    CHANNELS 3 Yrotation Xrotation Zrotation
                    End Site
                    {
                      OFFSET 0.2354259489999998 -0.025005222000000327 0.0075590014499999705
                    }
                  }
                }
              }
              JOINT leftIndexProximal
              {
                OFFSET 0.8008594516999996 -0.09898495199999946 0.29463124239999994
                CHANNELS 3 Yrotation Xrotation Zrotation
                JOINT leftIndexIntermediate
                {
                  OFFSET 0.30524754480000016 -0.024632811499998963 0.02743047472
                  CHANNELS 3 Yrotation Xrotation Zrotation
                  JOINT leftIndexDistal
                  {
                    OFFSET 0.23067378950000017 -0.016876459159999913 0.008481502700000004
                    CHANNELS 3 Yrotation Xrotation Zrotation
                    End Site
                    {
                      OFFSET 0.23067378950000017 -0.016876459159999913 0.008481502700000004
                    }
                  }
                }
              }
              JOINT leftThumbProximal
              {
                OFFSET 0.25574326469999953 -0.12833321050000013 0.22385764169999997
                CHANNELS 3 Yrotation Xrotation Zrotation
                JOINT leftThumbIntermediate
                {
                  OFFSET 0.22804987480000094 -0.07138466829999968 0.273648441
                  CHANNELS 3 Yrotation Xrotation Zrotation
                  JOINT leftThumbDistal
                  {
                    OFFSET 0.13614857189999907 -0.033867001519998885 0.14238119169999996
                    CHANNELS 3 Yrotation Xrotation Zrotation
                    End Site
                    {
                      OFFSET 0.13614857189999907 -0.033867001519998885 0.14238119169999996
                    }
                  }
                }
              }
            }
          }
        }
      }
    }
  }
  JOINT rightUpperLeg
  {
    OFFSET -0.9749898906000001 -1.8495733739999998 0
    CHANNELS 3 Yrotation Xrotation Zrotation
    JOINT rightLowerLeg
    {
      OFFSET 0 -4.1566544686813165 0
      CHANNELS 3 Yrotation Xrotation Zrotation
      JOINT rightFoot
      {
        OFFSET 0.14539718599999998 -4.225553926 -0.3666210900000001
        CHANNELS 3 Yrotation Xrotation Zrotation
        JOINT rightToes
        {
          OFFSET 0.1706738473 -0.9584117400000015 1.0093348617
          CHANNELS 3 Yrotation Xrotation Zrotation
          End Site
          {
            OFFSET 0.1706738473 -0.9584117400000015 1.0093348617
          }
        }
      }
    }
  }
  JOINT leftUpperLeg
  {
    OFFSET 0.9749898906000001 -1.8495733739999998 0
    CHANNELS 3 Yrotation Xrotation Zrotation
    JOINT leftLowerLeg
    {
      OFFSET 0 -4.156653488267941 0
      CHANNELS 3 Yrotation Xrotation Zrotation
      JOINT leftFoot
      {
        OFFSET -0.14537357999999995 -4.225555399999999 -0.36661124279999996
        CHANNELS 3 Yrotation Xrotation Zrotation
        JOINT leftToes
        {
          OFFSET -0.17066467000000002 -0.9584157000000019 1.0093348617
          CHANNELS 3 Yrotation Xrotation Zrotation
          End Site
          {
            OFFSET -0.17066467000000002 -0.9584157000000019 1.0093348617
          }
        }
      }
    }
  }
}
MOTION
Frames: 4
Frame Time: 0.03333333333333333
0.016404777765274048 -0.10204677517822347 0.009941339492797852 -5.277877722387267 -3.735654003959192 -3.348408713905207 1.5758004675343111 3.2919281291781934 2.799728938118153 0.756121566578253 2.2585312021397574 3.1175533491823084 -0.07151931433561087 5.622619370785941 0.4578491024579922 1.3855356009585456 -7.54873513987359 -0.28415762903771613 0 0 0 0 0 0 0 0 0 15.53399729475161 1.148872542343421 14.828571335755004 28.79307957863991 11.31182356504014 64.73046884572008 6.689225775431275 0.005042459281798894 -0.08620187574533651 -0.4645949237336485 -20.179641724107217 6.959266709927592 -4.502866032938422 0.6441505140408195 26.472773357239344 -1.0867415820092967 0.13361557668495902 17.44731743959099 -1.1783391834520445 0.13411291453150723 16.545239481802785 -2.802590827147359 -0.020793512536082304 20.499965572740628 -1.4286110652574537 0.2623801260619158 20.96097319424548 -1.218527632867904 0.1964144004352414 17.909417431953507 -2.070314466666228 -0.14563650521640462 15.031741096637141 -1.0810870257736944 0.16860082162209536 17.44871027827572 -1.2794695635032904 0.2009508072378875 18.459839072853462 1.3336486327994403 0.03480944426149339 6.812674471060539 -1.1462035597439293 0.17692244444626812 17.42472799609804 -0.5606778504854196 0.0387671428307649 8.066574496525309 -0.9680334152637087 -1.4061374025776503 -4.353163463634657 -29.595945460657344 10.84963960717404 -21.78021923780958 -3.0009702495673323 -15.65014985066438 -11.76583420683172 -17.605296458932752 1.014729620070999 -12.410487882293086 -20.717777763648353 3.227079426903665 -70.89201206315758 -1.4537609865199685 0.0002299564850697751 0.018788076604791728 -1.720324300340251 -33.220525379066125 -5.230291767018204 5.429518640597795 0.9476338736257415 -27.11253634605868 1.5006207218827827 0.29788342071161183 -17.418524616982985 1.441252452084087 0.26904296720777154 -16.518592991900697 3.3781301613299632 0.08948259148662928 -21.17182979730331 1.830346787091907 0.33824096313994023 -20.92332813179291 1.573672398780785 0.24781516354679606 -17.88151473363075 2.457908419895638 -0.10530285329447256 -15.735011066117666 1.5367388034395353 0.23468491557888752 -17.41925404518634 1.6224143402475137 0.2631622443080437 -18.426950105544176 -1.0692944843414374 0.01340244460582537 -7.578021724751879 1.5435188226055594 0.23635950001235911 -17.390639054439163 0.7098829773556563 0.05039381587445597 -8.04791767781498 2.865728546187815 -0.449452828122055 4.920017182111285 25.175205656073686 10.52708120107747 21.570272977812312 3.0330564472806607 -13.94421638075525 8.17543726886124 -10.33922929567882 0.6048676018054991 3.523097045696993 -9.873641142431964 7.314272729869531 -4.419310241476535 -1.6105513288461895 -3.692028898829877 3.334100028035653 -2.8552367498412747e-7 -7.273477156329588 -0.0000025613094471756103 15.122698214052368 -10.412328266188123 7.352850178105947 2.133574693082634 12.160704083732131 4.588352266254293 0.4244999588973969 1.2656485085988047 -7.1067462514124475 0.000015608990079836953 -4.9331453428355125 -0.000002315736285330387
0.020987890660762787 -0.1027067178051766 0.008797923102974892 -5.2404882886661905 -3.6918710500045577 -3.3064517056971527 1.5638585757931043 3.208237888290296 2.6897573271283552 0.7522813609591431 2.1971285585362557 3.1021777029622117 -0.06850286125451624 5.625754150148311 0.4573551793034954 1.3976749367225123 -7.53494436230724 -0.27555936704724926 0 0 0 0 0 0 0 0 0 15.53446061827114 1.1488905819381963 14.828457803320283 28.79707856836255 11.306131937755062 64.7371825343585 6.692262597652369 0.005050679354465931 -0.0862349927871759 -0.44631200511070945 -20.198360791033206 6.958681700036223 -4.5057993956577365 0.645555594287795 26.520222754801257 -1.0983976139131906 0.1368122608608644 17.62348714202034 -1.1833653034705096 0.1354736467262748 16.621265017790137 -2.806275893352082 -0.02030557919833874 20.55356344121834 -1.4398554360445606 0.2667243861272103 21.137129340867098 -1.2234843814653755 0.19805620354462727 17.985434349300395 -2.0721235022405184 -0.14572449754724934 15.056944757942373 -1.0926373748608225 0.17212911017392862 17.624871526928867 -1.2844064084932625 0.20259410491312127 18.535867919514548 1.3319475289870346 0.035036277954214566 6.837897079946401 -1.1577237825943263 0.1805394874380083 17.600884008030793 -0.5658132354247576 0.039483719221205194 8.142600584904386 -0.9855761687584133 -1.3821425684461397 -4.331894953271083 -29.581463575075198 10.852924759115854 -21.77596696000508 -2.975599704236022 -15.654794146636656 -11.767333089418205 -16.965538157982834 0.9913409624316173 -12.455346306936786 -19.934857188900548 3.1159921157029475 -70.87639698951149 -1.8594619979135572 0.0003866105568358284 0.024012693986146052 -2.2681540457309235 -30.00086361088849 -4.893838360061233 5.56911122857134 1.0190987477946294 -27.096123449980436 1.57579233067012 0.325542761397316 -18.31298178330304 1.4412475443844484 0.2690380846359041 -16.518596266081964 3.4317467364512946 0.10222820924848801 -21.669753211268286 1.865007572626241 0.3516527629143364 -21.338553910059925 1.5736649310088955 0.24781012089903184 -17.881525532705528 2.387026318509649 -0.10625745389914917 -14.971412938234716 1.625047197528654 0.26324879652468763 -18.456583644933296 1.6224130600869087 0.26316712687758553 -18.426984124331742 -1.1274462417497266 0.05915834664571169 -6.332160388071065 1.5431014126229619 0.23622852468510844 -17.385792537833236 0.7098937554246594 0.050403344125436435 -8.047998576518923 1.6825590026949768 -1.9731475542093235 6.423318334212641 24.397994990403408 11.00927700547894 20.00530972553176 1.9166829242550014 -13.463874122346187 8.141199235115558 -10.332364120349462 0.47214014202908017 3.4643175275593228 -9.939014665902675 7.445838911279234 -4.451803190961703 -1.6017122821056955 -3.7398536851309565 3.3749381229350734 0.0000075590001423358205 -7.2738971779120645 -0.000004382165813177738 15.125996805180215 -10.460440338473399 7.262953144619298 2.1047110153788346 12.176339641687365 4.58412016217699 0.4258042000283054 1.2642998578904818 -7.071967798440127 0.000012221177729645802 -4.9331453428355125 -0.0000014000746959305874
0.030413847416639328 -0.10395603115966878 0.006792978849261999 -5.163941396311873 -3.604328701623672 -3.219633284935068 1.532729247385818 3.014876517717019 2.4696497315101844 0.7428947986605372 2.0697991822022996 3.0701977080500398 -0.05674834667514458 5.646948241745989 0.44982900206300397 1.475037193726587 -7.42511172800345 -0.32666234951331197 0 0 0 0 0 0 0 0 0 15.538286965892038 1.1490002071704346 14.827543134518057 28.79009168961819 11.288948906603357 64.73922474426476 6.6787666102538585 0.0050262084007409585 -0.08605988267586678 -0.4432435140906596 -20.179754515716777 6.9583554252918205 -4.524057569766332 0.6543802862671144 26.815958673361195 -1.1707652840212717 0.1573951972558316 18.721254956732718 -1.214655816911537 0.14409898736699267 17.09501932338162 -2.8292301745741995 -0.017295618388883303 20.887648077558435 -1.5096741022192564 0.29463242065056505 22.234821858356074 -1.2542553402237195 0.20837080123606028 18.459161411793325 -2.0834114648684325 -0.14629333942631376 15.21398588632528 -1.1643145973628524 0.19485258586798082 18.722702149524647 -1.3151329639550073 0.21300906465165712 19.009590206258622 1.3212700703439926 0.03637409816199592 6.994953642334424 -1.2292332407827775 0.20376436913600804 18.69858663428297 -0.5979166825792117 0.04420507540521618 8.616431673525753 -1.0947388086334184 -1.232826343683632 -4.199289413851791 -29.491122451286856 10.87329802843164 -21.749469980557134 -2.8174229808854423 -15.683543605964125 -11.776599726047134 -15.634062352113768 0.945634383014372 -12.54139598382638 -18.28062358826561 2.7029247406521626 -70.78830768353966 -2.701843688350085 0.0008160138600911339 0.03490478654741559 -3.6518789769104885 -22.64903679334889 -4.577974831070371 6.291733994513552 1.3875782119562308 -27.008415061059836 1.8765948716177792 0.44998794723867513 -21.947904236650363 1.4412467975605885 0.2690379245515806 -16.51858710961637 3.601108724065722 0.14000394286774895 -23.64065539384283 2.005256668941145 0.4088691326921898 -23.03107210619838 1.5736665312457334 0.24781164169756373 -17.881533658089293 2.099524183127319 -0.0989500268894874 -11.81413276161735 1.9795183095310582 0.3961922822042215 -22.688161133974205 1.6224213811308141 0.26317288991049 -18.42701976313206 -1.4105132147702182 0.2527444193621473 -1.2653102532051972 1.541560981677002 0.23576129309385355 -17.36785194012995 0.7099138709295456 0.050404618116292176 -8.048179450077516 -2.93091727085035 -7.6103516175133175 12.13043018457253 21.467505088722255 12.830376636826895 14.165077595739104 -2.679394223962392 -11.483668099620296 8.049608270093586 -10.322022035850337 0.21278050520070724 3.3421227947344794 -10.042701215646352 7.700788574333544 -4.51214195264478 -1.6089305731716745 -3.831335789745608 3.457257901696596 0.0000027824696154641017 -7.273912670518934 -0.000002601368720250724 15.133837864374254 -10.550247238506282 7.078501296594819 2.0470677077199326 12.200164196246176 4.575206198181179 0.4283756637906718 1.2621227395967762 -7.001030500928143 0.0000055606964861829686 -4.9329491017668055 -8.769282030996455e-7
0.040272824466228485 -0.105240630463868 0.005486914422363043 -5.088971653715181 -3.518699934781891 -3.127469004945978 1.4773173233832344 2.7929282600232406 2.247782569152531 0.7292958868683962 1.9302963410066902 3.041876926843736 -0.021212293167120682 5.685553698475468 0.4454182545754987 1.7243455391965068 -7.142928763015894 -0.4790923751266779 0 0 0 0 0 0 0 0 0 15.543766575998879 1.1491696085843188 14.826225032361059 28.77495853226437 11.264927819611799 64.72095152541728 6.640546913492382 0.0049799699708898745 -0.08559607065805118 -0.4772323193154645 -20.111801425126647 6.962743578548936 -4.556681593613819 0.6704306493192033 27.346695986902812 -1.2996040001163685 0.19783013894227489 20.691256495750345 -1.2706355059044896 0.16022560116810908 17.945231096201752 -2.8704533440135194 -0.011534457025869554 21.4871987034874 -1.6335805153379315 0.34808968561441567 24.20467308076116 -1.309241521733172 0.22749514917861507 19.30931532827171 -2.103720022075781 -0.14718268099763587 15.495744740057521 -1.2917937680905536 0.23906174353999846 20.692772572230997 -1.3700697539979971 0.23233984670074412 19.859741477130253 1.3021262446054305 0.0388620618046781 7.2768288037837845 -1.3563894238092935 0.24885928516283404 20.66851539198761 -0.6554411853869598 0.053373323704197534 9.466744657740698 -1.289989270998543 -0.9649575396026523 -3.9615371201022413 -29.32892171591115 10.90978995992327 -21.701842252412035 -2.533513191060812 -15.735108058915996 -11.793437337309587 -14.230853789494002 0.9020648112309446 -12.6208588357577 -16.557919523318315 2.0339315649047913 -70.62174895660385 -3.639829436980174 0.0014857442573348876 0.04699422572316613 -5.080293070682928 -16.107708668759688 -4.2756751843889065 7.41367799094214 1.956565417802908 -26.863121616556526 2.223079163164676 0.622376461897448 -26.268639876597078 1.4412526654623317 0.2690457153219929 -16.518594628991348 3.7737411086093386 0.18081873950986954 -25.88962612763686 2.170379504970784 0.48254426859825167 -25.05158806469591 1.5736631303028792 0.24781014757970782 -17.881528782859125 1.7545952521735706 -0.0684829480398986 -7.969606200501128 2.388941037579064 0.5888846788129404 -27.74537564813484 1.622420847730566 0.2631547203484254 -18.427042982327148 -1.8661002155703885 0.5208349238853035 4.764833319657519 1.539934243486389 0.2352552678511593 -17.348722584413114 0.7099248624255103 0.05038884330805405 -8.048366719322388 -8.331946777362731 -13.526250989687403 18.461774715322765 18.036117013704647 14.757344244743967 7.899488257209051 -8.223947085361512 -9.132985374217531 7.998535429260507 -10.313091321959558 -0.044877705834423326 3.2111195728698747 -10.111333607619054 7.963023707619912 -4.569012482774741 -1.6499369285436811 -3.9273290851866625 3.5435234804516202 0.000009099545128277266 -7.2736036791829495 -0.000004402072082394742 15.144229946018172 -10.634630994961217 6.887584596477595 1.9885506947562104 12.229556529958929 4.565969401377742 0.4312713222575717 1.2527919482363192 -6.928344662748442 0.000003954523046220176 -4.933133345563272 -0.000001700585145767288
